<?xml version="1.0" encoding="UTF-8" standalone="no"?>
<!-- Created with Inkscape (http://www.inkscape.org/) -->

<svg
   xmlns:dc="http://purl.org/dc/elements/1.1/"
   xmlns:cc="http://creativecommons.org/ns#"
   xmlns:rdf="http://www.w3.org/1999/02/22-rdf-syntax-ns#"
   xmlns:svg="http://www.w3.org/2000/svg"
   xmlns="http://www.w3.org/2000/svg"
   xmlns:xlink="http://www.w3.org/1999/xlink"
   xmlns:sodipodi="http://sodipodi.sourceforge.net/DTD/sodipodi-0.dtd"
   xmlns:inkscape="http://www.inkscape.org/namespaces/inkscape"
   width="148.74109mm"
   height="53.327072mm"
   viewBox="0 0 148.74109 53.327072"
   version="1.1"
   id="svg8"
   inkscape:version="0.92.3 (2405546, 2018-03-11)"
   sodipodi:docname="logoale.svg">
  <defs
     id="defs2">
    <linearGradient
       inkscape:collect="always"
       id="linearGradient2283">
      <stop
         style="stop-color:#800080;stop-opacity:1;"
         offset="0"
         id="stop2279" />
      <stop
         style="stop-color:#800080;stop-opacity:0;"
         offset="1"
         id="stop2281" />
    </linearGradient>
    <radialGradient
       inkscape:collect="always"
       xlink:href="#linearGradient2283"
       id="radialGradient2285"
       cx="83.364101"
       cy="33.162982"
       fx="83.364101"
       fy="33.162982"
       r="73.025002"
       gradientTransform="matrix(1,0,0,0.38405797,0,20.426474)"
       gradientUnits="userSpaceOnUse" />
  </defs>
  <sodipodi:namedview
     id="base"
     pagecolor="#ffffff"
     bordercolor="#666666"
     borderopacity="1.0"
     inkscape:pageopacity="0.0"
     inkscape:pageshadow="2"
     inkscape:zoom="0.5"
     inkscape:cx="-318.93406"
     inkscape:cy="44.07926"
     inkscape:document-units="mm"
     inkscape:current-layer="layer1"
     showgrid="false"
     inkscape:window-width="1366"
     inkscape:window-height="705"
     inkscape:window-x="-8"
     inkscape:window-y="-8"
     inkscape:window-maximized="1" />
  <metadata
     id="metadata5">
    <rdf:RDF>
      <cc:Work
         rdf:about="">
        <dc:format>image/svg+xml</dc:format>
        <dc:type
           rdf:resource="http://purl.org/dc/dcmitype/StillImage" />
        <dc:title />
      </cc:Work>
    </rdf:RDF>
  </metadata>
  <g
     inkscape:label="Capa 1"
     inkscape:groupmode="layer"
     id="layer1"
     transform="translate(-8.2224337,-5.2359093)">
    <g
       id="g19">
      <path
         inkscape:connector-curvature="0"
         d="m 8.2225297,53.297906 c 0.66157,-0.841309 1.213281,-1.755846 1.7885923,-2.655506 0.4292,-0.845929 0.898958,-1.658078 1.504954,-2.390421 0.572572,-0.700921 1.234729,-1.310944 1.786444,-2.029933 0.732704,-0.89934 1.498743,-1.766504 2.164265,-2.717874 0.749337,-1.018972 1.504013,-2.028518 2.150576,-3.116993 0.826092,-1.408057 1.758492,-2.744012 2.751026,-4.038383 1.602552,-2.001451 3.180972,-4.023318 4.795213,-6.016265 1.853388,-2.24119 3.616264,-4.553969 5.434454,-6.823347 1.162675,-1.363179 2.300356,-2.741078 3.346818,-4.195583 0.613198,-0.72998 0.979363,-1.550302 1.115145,-2.487956 0.245808,-3.032393 -12.991471,4.107852 7.08089,-3.42442 0.123338,-0.04628 -7.94e-4,0.263472 -0.0019,0.395202 -0.0011,0.114417 -0.0097,0.813184 -0.01095,0.913114 -0.01315,1.041281 -0.01688,2.082644 -0.01932,3.123994 0.05623,1.269709 -0.07067,2.521199 -0.236,3.777033 -0.246549,1.241221 -0.492511,2.485654 -0.820624,3.708469 -0.247726,0.98756 -0.415075,1.986087 -0.690184,2.966984 -0.389175,1.021173 -0.605435,2.089751 -0.904475,3.137604 -0.432684,1.262168 -0.698516,2.569194 -1.045493,3.855051 -0.196361,1.008202 -0.519301,1.980969 -0.783532,2.971109 -0.160018,1.034793 -0.522769,2.012987 -0.854911,2.999856 -0.04753,0.16763 -0.09505,0.335256 -0.142579,0.502886 0,0 -7.041007,3.367902 -7.041007,3.367902 v 0 c 0.04169,-0.180625 0.08338,-0.361251 0.125074,-0.541877 0.289586,-0.980408 0.743807,-1.915255 0.86287,-2.939391 0.211897,-1.025057 0.643234,-1.97599 0.805955,-3.013361 0.357187,-1.281192 0.634066,-2.58033 1.03881,-3.848695 0.09243,-0.361609 0.227279,-0.711552 0.318113,-1.073565 0.172313,-0.686734 0.204134,-1.412098 0.558353,-2.04733 0.251741,-0.996704 0.56066,-1.964436 0.715563,-2.985792 0.336773,-1.199305 0.594299,-2.412404 0.89118,-3.623095 0.157986,-1.223293 0.336752,-2.432698 0.246455,-3.670911 0.0013,-1.039784 0.0041,-2.079564 0.0045,-3.119348 -2.2e-4,-0.09883 -0.08151,-1.230635 -0.0097,-1.271905 2.319602,-1.333786 4.765823,-2.435423 7.116607,-3.713451 0.05468,-0.02973 -0.391901,-0.322899 -0.156179,0.102333 -0.177387,1.025639 -0.314986,2.040893 -1.017066,2.869393 -1.161875,1.422966 -2.187559,2.96178 -3.483795,4.278641 -1.861214,2.248254 -3.622649,4.576262 -5.470488,6.834208 -1.579967,1.97263 -3.112873,3.978474 -4.701254,5.941489 -0.188212,0.264231 -0.376423,0.528465 -0.564634,0.792697 -0.182663,0.216315 -0.378259,0.422344 -0.547992,0.648949 -0.590084,0.787797 -1.002467,1.698715 -1.610185,2.475579 -0.589923,1.132496 -1.301605,2.179664 -2.100411,3.175966 -0.656987,0.968367 -1.354423,1.888966 -2.119979,2.771301 -0.595045,0.673232 -1.05356,1.452007 -1.776381,2.006968 -0.559805,0.747358 -1.26501,1.391338 -1.557147,2.313088 -0.541917,0.923562 -1.153552,1.800328 -1.717709,2.705057 0,0 -7.2180583,3.110529 -7.2180583,3.110529 z"
         id="path10"
         style="opacity:1;fill:#00ff00;fill-opacity:1;stroke-width:0.1;stroke-miterlimit:4;stroke-dasharray:none" />
      <path
         inkscape:connector-curvature="0"
         d="m 26.131787,40.763472 c 0.08653,-1.098849 0.481468,-2.141093 1.118873,-3.033763 0.661651,-0.867526 1.5886,-1.485106 2.43809,-2.155454 0.773494,-0.62982 1.593051,-1.176523 2.334398,-1.847848 0.723363,-0.670353 1.521515,-1.258604 2.133653,-2.037032 0.473485,-0.637916 0.999384,-1.230863 1.507273,-1.840404 0.522414,-0.720405 1.045699,-1.428735 1.657167,-2.076662 0.566581,-0.62379 1.123082,-1.260364 1.729081,-1.846472 0.821632,-0.882025 1.556054,-1.839386 2.277229,-2.803755 0.564804,-0.901356 1.124696,-1.802101 1.742004,-2.668487 0.511738,-0.599585 0.951703,-1.263044 1.306472,-1.966518 0.507524,-0.744987 0.914885,-1.494541 1.195515,-2.351984 0.264835,-0.710883 0.533249,-1.435905 0.694547,-2.178333 6.67023,-3.710316 7.42945,-5.3723157 7.504271,-0.895799 0.01215,1.196416 -0.0241,2.392417 -0.03377,3.588669 1.19e-4,1.369031 0.0013,2.738009 -0.0087,4.107011 -0.01061,1.636226 -0.01913,3.272491 -0.0086,4.908743 0.01159,1.271 0.02141,2.542008 0.02638,3.813051 0.0035,1.065583 0.0035,2.131174 0.0036,3.196759 0.0028,1.244828 -0.02013,2.489322 -0.01857,3.734163 0.0035,1.424476 -0.0075,2.848901 -0.0016,4.273388 0.0077,1.204582 0.0141,2.409169 0.01738,3.613772 0.0024,1.064098 0.0024,2.1282 0.0026,3.192298 0,0 -6.956859,3.544697 -6.956859,3.544697 v 0 c 9.8e-5,-1.064969 1.54e-4,-2.129938 0.0026,-3.194904 0.0033,-1.210511 0.0097,-2.421009 0.01738,-3.631502 0.0061,-1.423987 -0.0049,-2.847911 -0.0016,-4.271891 0.0016,-1.23853 -0.02133,-2.476711 -0.01857,-3.715229 1.19e-4,-1.06681 1.69e-4,-2.133621 0.0036,-3.200426 0.005,-1.279967 0.01474,-2.559899 0.02619,-3.839827 0.01037,-1.633532 0.0019,-3.267072 -0.0082,-4.900583 -0.0089,-1.369335 -0.0059,-2.738617 0.0044,-4.107939 -1.91e-4,-1.184307 -0.01458,-2.368534 -0.0052,-3.552857 -0.04945,-4.206109 -1.314341,-1.801606 6.784742,-5.596508 -0.701505,-0.127039 -0.647409,1.397712 -0.92108,1.821893 -0.382273,0.815878 -0.440447,1.782006 -1.164871,2.421033 -0.379272,0.737844 -0.714827,1.477513 -1.229466,2.134918 -0.76722,0.742585 -1.281871,1.726282 -1.830996,2.632292 -0.673203,0.988274 -1.416674,1.931405 -2.172295,2.857026 -0.52569,0.659725 -1.189381,1.203063 -1.754476,1.82988 -0.535808,0.701423 -1.25849,1.249248 -1.654286,2.057836 -0.498491,0.629113 -1.05328,1.192461 -1.503709,1.853843 -0.869799,0.963549 0.334256,-0.405649 -0.546992,0.72722 -0.429598,0.552268 -1.074137,0.933765 -1.582504,1.40406 -0.718244,0.709302 -1.431846,1.385937 -2.317078,1.878449 -0.777134,0.731755 -1.681557,1.298003 -2.490052,1.994299 -0.198324,0.253296 -0.438478,0.473181 -0.625721,0.734772 -0.375769,0.524975 -0.512662,1.214046 -0.669499,1.825852 0,0 -7.003092,3.568253 -7.003092,3.568253 z"
         id="path12"
         style="opacity:1;fill:#00ff00;fill-opacity:1;stroke-width:0.1;stroke-miterlimit:4;stroke-dasharray:none" />
      <path
         inkscape:connector-curvature="0"
         d="m 80.230712,11.36986 c -0.178218,1.405592 -0.331888,2.81347 -0.598218,4.205628 -0.254767,1.260219 -0.381203,2.538812 -0.448053,3.821081 -0.04413,1.073708 -0.04126,2.148583 -0.04083,3.222974 0.03307,1.184958 -0.224335,2.352731 -0.499621,3.498128 -0.319259,1.116121 -0.396835,2.273525 -0.554135,3.41694 -0.238731,1.268389 -0.446514,2.541299 -0.753425,3.79553 -0.352922,1.347631 -0.645829,2.709339 -0.970441,4.064243 -0.266708,1.339078 -0.651235,2.65202 -1.047454,3.957545 -0.635611,1.698517 -1.235655,3.410736 -1.871147,5.109581 -0.487238,1.307353 -0.853487,2.65336 -1.282835,3.980156 -0.319457,1.018339 -0.799517,1.973217 -1.123862,2.989037 -0.182962,0.591352 -0.416536,1.162413 -0.593207,1.755865 0,0 -7.058181,3.376414 -7.058181,3.376414 v 0 c 0.134446,-0.616259 0.304099,-1.219753 0.600221,-1.781529 0.262641,-1.046848 0.713494,-2.010722 1.115777,-3.008313 0.412477,-1.364813 0.924975,-2.697768 1.348369,-4.060322 0.638504,-1.678339 1.211017,-3.381012 1.865522,-5.053338 0.398216,-1.281604 0.752327,-2.581312 1.030711,-3.892529 0.317767,-1.368811 0.688297,-2.722446 0.981644,-4.097377 0.362193,-1.217922 0.495943,-2.471258 0.747424,-3.713056 0.244446,-1.145188 0.203763,-2.34291 0.548735,-3.474189 0.272481,-1.085667 0.552185,-2.194253 0.55958,-3.317792 -0.0011,-1.087753 -0.0048,-2.175897 0.03399,-3.263136 0.06137,-1.319654 0.181856,-2.636139 0.436687,-3.934261 0.247756,-1.33636 0.460618,-2.671662 0.569656,-4.029028 0,0 7.003092,-3.568252 7.003092,-3.568252 z"
         id="path14"
         style="opacity:1;fill:#00ff00;fill-opacity:1;stroke-width:0.1;stroke-miterlimit:4;stroke-dasharray:none" />
      <path
         inkscape:connector-curvature="0"
         d="m 65.408325,5.2359093 c 1.110366,0.0478 2.236666,0.444397 3.242532,0.909694 0.91893,0.318891 1.539135,0.963837 2.158355,1.669414 0.71638,0.512706 1.107538,1.315511 1.52691,2.064293 0.451292,0.9196947 1.145606,1.6684917 1.675686,2.5477107 0.691144,1.062114 1.342128,2.151173 2.089684,3.175386 0.752081,0.724522 1.283012,1.631207 2.097731,2.290085 0.864901,0.818899 1.532834,1.817098 2.237306,2.773246 1.031126,1.4063 1.941946,2.893227 2.967,4.302593 0.87108,1.001999 1.687737,2.051043 2.588797,3.02854 1.25553,1.341581 2.680011,2.505467 3.996091,3.784129 1.13587,1.10689 2.34842,2.138003 3.45609,3.272825 0.7334,0.620696 1.41292,1.297381 2.03158,2.031886 0.57865,0.813485 1.24591,1.57503 1.93669,2.295514 0.57825,0.733605 1.31657,1.321128 2.07531,1.856809 0.38496,0.170521 0.713553,0.428056 1.078663,0.634966 0,0 -6.578163,4.257257 -6.578163,4.257257 v 0 c -0.37195,-0.233792 -0.74247,-0.469792 -1.11274,-0.70624 -0.76871,-0.598752 -1.54241,-1.203729 -2.13631,-1.985941 -0.67939,-0.749096 -1.38158,-1.485932 -1.96349,-2.315112 -0.62413,-0.708938 -1.298956,-1.364895 -1.990061,-2.007838 -1.074163,-1.141272 -2.204154,-2.232814 -3.353244,-3.297851 -1.346391,-1.273654 -2.765457,-2.469211 -4.06477,-3.792064 -0.937189,-0.991375 -1.792571,-2.048304 -2.635647,-3.119599 -0.993804,-1.421204 -1.874787,-2.917981 -2.952417,-4.281837 -0.706297,-0.892789 -1.383546,-1.820153 -2.216875,-2.598983 -0.811273,-0.743739 -1.412173,-1.656419 -2.155166,-2.464901 -0.752906,-1.046073 -1.425575,-2.147647 -2.144106,-3.217037 -0.536665,-0.877226 -1.264224,-1.618276 -1.696368,-2.557015 -0.416653,-0.70556 -0.814742,-1.407889 -1.473904,-1.921627 -0.536141,-0.627801 -1.143894,-1.107687 -1.938388,-1.38711 -0.99772,-0.382466 -2.021308,-0.7251677 -3.105451,-0.6213447 0,0 6.358675,-4.619848 6.358675,-4.619848 z"
         id="path16"
         style="opacity:1;fill:#800080;fill-opacity:1;stroke-width:0.1;stroke-miterlimit:4;stroke-dasharray:none" />
      <path
         inkscape:connector-curvature="0"
         d="m 109.20616,16.351244 c -0.96084,0.969132 -1.89167,1.964402 -2.86956,2.917634 -0.85124,0.922621 -1.72385,1.820715 -2.70383,2.607276 -1.02812,0.800939 -2.01259,1.651627 -3.07259,2.411002 -1.002663,0.752081 -2.050523,1.447472 -3.036563,2.22127 -1.30685,1.087938 -2.58038,2.215158 -3.87131,3.32228 -1.41713,1.294792 -2.78661,2.641397 -4.24551,3.889632 -1.53343,1.237848 -3.116071,2.419255 -4.740372,3.535455 -1.160838,0.839028 -2.336049,1.66061 -3.480234,2.522048 -0.900282,0.71864 -1.778294,1.460648 -2.655281,2.206818 -0.917173,0.836419 -1.908223,1.58087 -2.877659,2.353725 -0.986607,0.912252 -2.026314,1.762006 -3.095064,2.575592 -1.058167,0.829569 -2.115458,1.660094 -3.190108,2.46834 -0.899337,0.675172 -1.854718,1.270339 -2.780382,1.90831 -0.868796,0.593911 -1.731782,1.195703 -2.497642,1.919873 -0.499928,0.431966 -0.249524,0.229814 -0.7492,0.608938 0,0 -7.255552,2.924172 -7.255552,2.924172 v 0 c 0.479634,-0.427749 0.221588,-0.233703 0.77579,-0.579942 0.806466,-0.701459 1.555528,-1.456307 2.459728,-2.043314 0.961329,-0.57586 1.833819,-1.293953 2.817,-1.833684 1.031095,-0.886 2.204585,-1.602653 3.217262,-2.515632 1.082238,-0.769027 2.147345,-1.596509 3.086068,-2.528417 0.941893,-0.79372 1.959848,-1.485619 2.856307,-2.331585 0.887344,-0.748122 1.753775,-1.508013 2.658779,-2.233271 1.125744,-0.948002 2.38991,-1.699921 3.543586,-2.615999 1.648148,-1.075909 3.21745,-2.270424 4.778835,-3.46701 1.49483,-1.196128 2.843459,-2.554441 4.241229,-3.860593 1.234736,-1.126715 2.5422,-2.179892 3.7765,-3.304162 0.94608,-0.853133 2.05137,-1.476819 3.01413,-2.311879 1.11728,-0.670708 2.08655,-1.526611 3.09074,-2.351259 1.00084,-0.754391 1.97188,-1.55379 2.76052,-2.538 0.960753,-0.931174 1.931883,-1.849252 2.792353,-2.873729 0,0 7.25203,-3.003889 7.25203,-3.003889 z"
         id="path18"
         style="opacity:1;fill:#800080;fill-opacity:1;stroke-width:0.1;stroke-miterlimit:4;stroke-dasharray:none" />
      <path
         inkscape:connector-curvature="0"
         d="m 127.14905,19.198092 c -0.46664,-0.981639 -1.06513,-1.885471 -1.5824,-2.8413 -0.44571,-0.808688 -0.63035,-1.799748 -1.32919,-2.440593 -0.28728,-0.443526 -0.81334,-0.544968 -1.19337,-0.86842 -0.20438,-0.173953 -0.38086,-0.37869 -0.58203,-0.556348 -0.59486,-0.442983 -1.21703,-0.828993 -1.8671,-1.188774 -0.74475,-0.247758 -1.30159,-0.822089 -2.00397,-1.149147 -0.22609,-0.06933 -0.42054,-0.1790227 -0.66189,-0.07729 -0.0891,0.03754 -0.30323,0.23722 -0.21849,0.190709 2.19035,-1.2021337 4.35651,-2.4478457 6.54094,-3.6606897 0.0818,-0.04544 -0.1696,0.08833 -0.23219,0.157933 -0.0734,0.08164 -0.11053,0.189757 -0.1658,0.284636 -0.1918,0.853863 -0.37303,1.714308 -0.55004,2.573968 -0.17931,0.9700917 -0.20515,1.9585467 -0.22661,2.9420797 -0.0153,1.05475 -0.0115,2.10966 -0.0101,3.164485 0.002,1.059277 0.002,2.118555 0.003,3.177833 2.7e-4,1.058447 2.7e-4,2.116894 2.7e-4,3.175342 -1e-5,1.058325 -2e-5,2.11665 -2e-5,3.174978 -1e-5,1.058331 -1e-5,2.116662 -1e-5,3.174992 0,1.058334 0,2.116667 0,3.175 0.005,0.989777 -0.0586,1.975633 0.12394,2.952192 0.32834,0.922684 0.59822,1.863063 0.89794,2.79527 0.44001,0.795192 0.63987,1.690457 1.09396,2.474534 0.45958,0.737658 0.95742,1.449954 1.41691,2.190197 0.40893,0.615611 0.94209,1.05995 1.55858,1.455275 0.75114,0.440827 1.42981,0.978871 2.13625,1.484817 0.74856,0.43034 1.62436,0.457147 2.46518,0.498534 1.03728,0.03222 2.0753,0.02185 3.11291,0.01788 1.0606,-0.0046 2.12122,-0.0065 3.18183,-0.0075 1.0588,-7.94e-4 2.11759,-7.94e-4 3.17639,-7.94e-4 1.20701,0.02365 2.38769,-0.288891 3.54149,-0.609264 1.03572,-0.335388 1.99255,-0.855991 3.01928,-1.204976 0.32302,-0.310758 0.77394,-0.371549 1.15404,-0.561896 0.1183,-0.05924 0.4404,-0.292687 0.32544,-0.227205 -6.36086,3.623122 -8.27172,5.298183 -6.11304,3.440808 0.61944,-0.525415 1.3112,-0.95645 1.91071,-1.506728 0.74781,-0.609952 1.29544,-1.405504 1.74181,-2.251662 0.29381,-0.866304 0.67781,-1.682872 1.10982,-2.486073 0.29271,-0.777523 0.56316,-1.573051 0.78576,-2.375336 0.22161,-0.942838 0.24336,-1.915494 0.266,-2.879133 0.0808,-0.901001 -0.0204,-1.722038 -0.39516,-2.538947 -0.35717,-0.772361 -0.89473,-1.417936 -1.40788,-2.085546 -0.53373,-0.709496 -1.24696,-1.241679 -1.75743,-1.969833 -0.46951,-0.783895 -0.82278,-1.583865 -1.01697,-2.477686 -0.2717,-0.471987 -0.25597,-1.68588 -0.67477,-1.972622 -0.31754,0.363522 0.27441,-0.345794 -0.13484,0.339818 -0.0408,0.06838 -0.12325,0.100867 -0.18488,0.151302 2.17095,-1.24269 4.3368,-2.494312 6.51284,-3.728067 0.18659,-0.105793 -0.32434,0.285308 -0.45338,0.45665 -0.50168,0.576101 -1.07769,1.096695 -1.66431,1.587368 -3.67556,4.867722 -5.02375,2.963034 -7.96441,4.350112 -0.42621,0.201041 -0.78008,0.437981 -1.23222,0.599062 -0.31478,0.317637 -0.76071,0.378068 -1.13794,0.568007 -0.38141,0.192035 -0.66522,0.401386 -1.08123,0.542084 -3.85644,2.437021 9.36683,-5.827035 4.68653,-2.551594 -4.37963,2.67521 -14.43674,8.235161 -1.28611,0.772184 0.16622,-0.09433 -0.31825,0.21173 -0.47842,0.316013 -0.44416,0.289197 -0.52875,0.338949 -0.97007,0.61392 -0.9081,0.546902 -1.71463,1.226198 -2.52835,1.900129 -0.88267,0.703496 -1.77842,1.390208 -2.67878,2.071122 -23.81761,13.695952 4.32621,-2.394538 -1.21626,0.765386 -2.36846,1.350325 -4.70367,2.762076 -7.11673,4.030972 -2.16114,1.136425 8.4595,-4.880888 6.36055,-3.63334 -2.33511,1.387914 -4.71275,2.702994 -7.06912,4.054488 21.15357,-12.074686 -16.45508,9.460042 4.13899,-2.360522 -23.91866,13.563737 15.65004,-8.783852 -8.29209,4.736679 -2.07089,1.169469 4.12272,-2.37241 6.18996,-3.54833 0.28798,-0.163814 -0.56009,0.354084 -0.83909,0.532762 -0.69623,0.60356 -1.44063,1.138376 -2.20655,1.649339 -0.64689,0.514157 -1.30419,1.020403 -1.89056,1.604446 -0.60308,0.66942 -1.3115,1.213226 -2.00786,1.778159 -2.6636,2.16154 -5.66145,3.509433 -8.72755,5.258501 5.32611,-3.047791 12.29104,-7.041456 -0.66455,0.407085 -2.13179,1.225625 4.25401,-2.467903 6.39196,-3.68274 0.11124,-0.06321 -0.20519,0.152924 -0.30974,0.226674 -0.24057,0.169693 -0.48525,0.333486 -0.72635,0.502414 -2.49558,1.71789 -5.09999,2.949038 -7.80064,4.584761 -2.08788,1.264581 4.22859,-2.439855 6.34839,-3.650173 0.79979,-0.456647 -0.56995,0.356288 -0.6784,0.420838 -0.41228,0.312746 -0.20701,0.162822 -0.61526,0.450538 0,0 -7.26308,2.961476 -7.26308,2.961476 v 0 c 0.35568,-0.394028 0.15673,-0.224811 0.59484,-0.510024 0.45454,-0.427813 0.12491,-0.166153 0.66199,-0.477737 2.35234,-1.364663 4.69503,-2.745952 7.05062,-4.104995 2.10831,-1.216374 -4.2033,2.455702 -6.30876,3.676986 -0.25494,0.147879 1.03943,-0.614116 0.71043,-0.526343 0.37199,-0.198014 0.68241,-0.450371 1.04351,-0.664054 23.22174,-13.741559 -15.625733,9.110186 7.69206,-4.503407 -12.757,7.402304 -6.69401,4.27178 -4.67652,2.514415 0.73268,-0.48133 1.47138,-1.024115 2.03842,-1.696839 0.63429,-0.535406 1.17139,-1.187214 1.86641,-1.649627 0.67785,-0.646139 1.57951,-0.976725 2.21285,-1.677405 2.08387,-1.828988 7.82002,-4.659397 7.98173,-4.755706 2.02667,-1.207034 -8.17989,4.702792 -6.12369,3.546782 1.17665,-0.661514 16.47745,-9.521039 1.07906,-0.609335 22.99702,-13.238371 -3.25602,2.00497 2.21977,-1.224817 2.33635,-1.378053 4.67678,-2.749188 7.01517,-4.12378 -16.24335,9.381326 -0.0903,0.04033 0.72899,-0.3815 2.16187,-1.113041 -4.21107,2.432523 -6.31316,3.654713 -0.13048,0.07587 0.26769,-0.139774 0.39817,-0.215641 2.36235,-1.373547 4.71804,-2.758532 7.08015,-4.132492 2.07548,-1.207238 -4.14683,2.421546 -6.22025,3.632316 0.95088,-0.615807 1.77317,-1.368951 2.71023,-2.00334 0.79787,-0.702625 1.58805,-1.428401 2.50008,-1.976332 2.40903,-1.818563 7.09194,-4.206348 8.51866,-5.083066 2.04756,-1.258226 -4.15234,2.4209 -6.23493,3.620246 -0.14122,0.08133 0.27351,-0.17725 0.41026,-0.265875 0.37189,-0.199048 0.68145,-0.453792 1.04321,-0.667033 2.16946,-1.2788 5.04941,-3.253308 7.71999,-4.465164 0.73044,-0.38142 1.46356,-0.757279 2.21292,-1.099568 2.7308,-1.328388 7.78536,-3.348646 -4.25812,2.735268 0.70221,-0.310037 1.12882,-0.922968 1.75258,-1.344497 0.0744,-0.08491 0.16393,-0.158675 0.2233,-0.254724 0.0672,-0.108794 0.0434,-0.284621 0.1519,-0.352336 2.28345,-1.42508 4.62657,-2.752777 6.96351,-4.088336 0.0824,-0.04712 0.18648,-0.06675 0.28019,-0.05143 0.25252,0.04127 0.44501,0.246044 0.62707,0.397999 0.46135,0.702331 0.49786,1.559669 0.81319,2.330593 0.14601,0.79552 0.44973,1.492631 0.8632,2.187091 0.51262,0.706107 1.23159,1.233085 1.74307,1.943497 0.55129,0.712417 1.08737,1.431036 1.49918,2.236724 0.425,0.919562 0.63213,1.83955 0.53523,2.862408 -0.0115,1.007837 -0.0201,2.020644 -0.17494,3.018927 -0.16812,0.868384 -0.52708,1.657551 -0.71152,2.519731 -0.34421,0.85082 -0.96163,1.566743 -1.13774,2.49166 -0.37237,0.943372 -0.90194,1.803826 -1.58724,2.554351 -0.62994,0.503621 -1.17415,1.123312 -1.89723,1.500267 -2.57138,2.208824 -5.69977,3.749016 -8.79118,5.121439 -0.99471,0.42813 -2.00571,0.818655 -3.04762,1.118804 -1.20159,0.297921 -2.43361,0.48532 -3.67498,0.458922 -1.05856,7.4e-5 -2.11713,1.32e-4 -3.1757,0.0016 -1.06036,0.0016 -2.12072,0.0047 -3.18108,0.0085 -1.05189,0.0019 -2.10546,0.0118 -3.15541,-0.06263 -0.96689,-0.09745 -1.92675,-0.257482 -2.72792,-0.852329 -0.68502,-0.524605 -1.39822,-1.001826 -2.1296,-1.459405 -0.66719,-0.493437 -1.27639,-1.019653 -1.71959,-1.733549 -0.4614,-0.746401 -0.9531,-1.469875 -1.41767,-2.212727 -0.49127,-0.833218 -0.70487,-1.776971 -1.16121,-2.631633 -0.31025,-0.959358 -0.58703,-1.927577 -0.95847,-2.866202 -0.21302,-1.02621 -0.19957,-2.050473 -0.17739,-3.096464 0,-1.058333 0,-2.116666 0,-3.175 0,-1.058333 0,-2.116664 0,-3.174997 0,-1.058323 10e-6,-2.116648 3e-5,-3.174973 0,-1.058373 3e-5,-2.116749 -1.8e-4,-3.175122 -2.7e-4,-1.059061 -8e-4,-2.118122 -0.002,-3.177183 -0.002,-1.05869 -0.005,-2.117405 0.002,-3.176082 0.0117,-1.017508 0.0236,-2.0383 0.15611,-3.048819 0.14193,-0.900717 0.44683,-1.757489 0.48225,-2.672823 0.62528,-3.3381007 5.34139,-6.0320587 8.40146,-4.5168507 0.67094,0.396232 1.29903,0.86458 2.02091,1.173039 0.67481,0.409839 1.3539,0.806992 1.95602,1.323353 0.57865,0.528697 1.27792,0.885746 1.79889,1.478743 0.67365,0.7672657 0.98569,1.7197537 1.40411,2.6374267 0.53709,0.979 1.10829,1.933288 1.67356,2.896205 0,0 -6.85705,3.829158 -6.85705,3.829158 z"
         id="path20"
         style="opacity:1;fill:#800080;fill-opacity:1;stroke-width:0.1;stroke-miterlimit:4;stroke-dasharray:none" />
    </g>
    <rect
       style="opacity:0.59589042;fill:url(#radialGradient2285);fill-opacity:1;stroke-width:0.1;stroke-miterlimit:4;stroke-dasharray:none"
       id="rect21"
       width="146.05"
       height="56.091667"
       x="10.3391"
       y="5.1171479" />
    <rect
       style="opacity:1;fill:#e9afaf;fill-opacity:1;stroke-width:0.1;stroke-miterlimit:4;stroke-dasharray:none"
       id="rect2297"
       width="2.1166666"
       height="1.0583333"
       x="15.101601"
       y="72.321312" />
  </g>
</svg>
